<svg xmlns="http://www.w3.org/2000/svg" version="1.2" viewBox="17.21 0 310 310">
	<style>
		.s0 { fill: #000000 } 
	</style>
	<g id="Layer 1">
		<path class="s0" d="m315 225.5c2.01 9.33-1.53 15.67-11 19l-126 64q-6 3-11 0l-132-67q-6-3-6-10v-155q-1-6 5-9l132-66q6-3 12 0l132 66q6 3 5 10zm-80 37q4-1 3-4v-13q-1-8 8-8v26l54-27c-1.33-2.67-26-15-26-15q-7-3-2-7 3-3 6-1l28 15v-65c-8 2-13 8-21 9-2-7-2-7 3-10q7-3 13-8l-54-28-1 10q-3 4-8 3l-1-23-55 26q-7 3-6 11v4q0 4 5 7l19 10q8 3 4 12l-27-15v52c10-3 18-10 28-13q2 9-5 12l-21 11zm-128-147v77l54-27q7-3 7-11 1-9-8-12zm-70 32l57-29q4-1 4-5-1-4-4-5c0 0-54.33-27.67-57-27zm269-1v-65h-3l-54 28q-6 4 1 9c0 0 51.33 26.67 56 28zm-209 47l-59-30v64l55-27q6-2 4-7zm69 40l-59-30v60zm-54 37l55 28v-55zm65-27l-1 52q0 2 2 3l54-28c0 0-45.67-23.67-55-27zm-135-89l55 29v-56zm196-110l-56 29 55 28zm-128 2q-5-2-4 4v47l2 3 54-27zm57 20v-56l-53 27v1zm63-28c0-2-51-27.67-53-27v55zm-63 98v-56l-54 28zm9-3q2 4 5 1l50-26-55-28zm-79 75l-54 27 49 25q7 5 6-4zm1-163l-55 28 55 27zm148 5v50l55-27-53-27q-2 1-2 4zm-78 121l-51 26c4 4 46 25 51 26z"/>
		<path class="s0" d="m259 218.5c-8.67 6.67-37 20-37 20q-8 4-9-6v-65q0-7 6-10 13-7 27-11c13-2 25 4 28 17q8 31-15 55zm-37-40v50l23-11c17-8 26-32 21-50q-5-15-21-11l-13 5q-12 4-10 17z"/>
	</g>
</svg>